<?xml version="1.0" encoding="UTF-8" standalone="no"?>
<!-- Created with Inkscape (http://www.inkscape.org/) -->

<svg
   width="55.457405mm"
   height="53.651524mm"
   viewBox="0 0 55.457405 53.651524"
   version="1.1"
   id="svg5"
   inkscape:version="1.1 (c68e22c387, 2021-05-23)"
   sodipodi:docname="描画.svg"
   xmlns:inkscape="http://www.inkscape.org/namespaces/inkscape"
   xmlns:sodipodi="http://sodipodi.sourceforge.net/DTD/sodipodi-0.dtd"
   xmlns="http://www.w3.org/2000/svg"
   xmlns:svg="http://www.w3.org/2000/svg">
  <sodipodi:namedview
     id="namedview7"
     pagecolor="#ffffff"
     bordercolor="#666666"
     borderopacity="1.0"
     inkscape:pageshadow="2"
     inkscape:pageopacity="0.0"
     inkscape:pagecheckerboard="0"
     inkscape:document-units="mm"
     showgrid="false"
     inkscape:zoom="3.1108586"
     inkscape:cx="149.9586"
     inkscape:cy="152.85169"
     inkscape:window-width="2063"
     inkscape:window-height="1343"
     inkscape:window-x="157"
     inkscape:window-y="16"
     inkscape:window-maximized="0"
     inkscape:current-layer="layer1" />
  <defs
     id="defs2" />
  <g
     inkscape:label="レイヤー 1"
     inkscape:groupmode="layer"
     id="layer1"
     transform="translate(-12.357784,-6.473739)">
    <path
       style="fill:#2871c3;stroke:none;stroke-width:0.111859"
       d="m 17.073411,25.936737 c -1.054452,2.061117 -1.39588,4.39517 -0.552047,6.599689 0.285788,0.746661 1.180192,1.600257 1.285004,2.349042 0.05361,0.383004 -0.315454,0.781894 -0.45728,1.118592 -0.265297,0.629877 -0.414696,1.334478 -0.480402,2.013464 -0.102418,1.0583 -0.125674,3.59504 1.435176,3.355774 0,1.279333 -0.09606,2.558556 0.240631,3.803213 0.196604,0.726748 0.866495,1.527882 0.922413,2.237184 0.119331,1.513789 -0.440881,2.793906 0.02158,4.362508 0.299178,1.014784 1.195987,1.747349 1.470478,2.694687 0.46388,1.600704 0.102262,4.012946 2.042985,4.798867 0.741402,0.300232 1.493767,0.02127 1.85977,-0.671826 0.668806,-1.266803 0.461084,-2.779812 1.149801,-4.025249 0.842858,-1.524196 2.571754,-2.458778 3.476582,-4.026933 0.242959,-0.421037 0.769816,-1.26423 0.594979,-1.771402 -0.123155,-0.357388 -0.462761,-0.250003 -0.616903,0.0077 -0.435132,0.726972 -0.674063,1.522292 -1.195663,2.211122 -0.848899,1.121162 -2.137069,1.924422 -2.865943,3.132053 -0.557842,0.924182 -0.641736,2.080807 -0.724736,3.132057 h -0.111859 c -0.425401,-1.513899 -0.242175,-3.073104 0.914337,-4.231183 0.815341,-0.816573 1.868943,-1.238393 2.500947,-2.256647 0.210407,-0.338822 1.324972,-2.550836 0.486028,-2.693458 -0.475513,-0.08076 -0.534799,1.059867 -0.64923,1.351149 -0.563547,1.435374 -1.758203,2.127336 -2.916505,3.020196 0.341954,-1.204948 0.760531,-2.34401 1.31457,-3.467635 0.107832,-0.21857 0.51388,-0.89946 0.09105,-1.034474 -0.577417,-0.184567 -1.084699,1.328552 -1.245999,1.70563 -0.553815,1.295106 -0.591624,2.505533 -0.899125,3.803213 -0.21119,0.891405 -0.655606,1.609317 -0.592741,2.572759 0.03557,0.544644 0.813663,2.086847 0.405377,2.408888 -1.320363,1.041744 -2.021787,-2.253851 -2.123624,-2.968183 -0.52793,-3.703321 1.07415,-7.249145 1.148884,-10.850341 1.300474,1.287723 1.762005,3.13396 4.02693,3.015279 2.845362,-0.149111 3.065725,-4.473586 0.894873,-5.699896 V 41.82075 l 1.789747,-0.559294 c 0.05078,1.165014 0.565559,2.445687 1.455848,3.220089 0.242733,0.211189 1.061097,0.826526 1.320942,0.326964 0.198441,-0.381664 -0.549338,-0.700125 -0.761647,-0.886259 -0.629207,-0.551801 -1.201031,-1.576655 -1.252601,-2.432155 -0.03456,-0.574284 0.608181,-0.566677 1.027204,-0.628983 1.161545,-0.172374 2.29602,-0.04709 3.467635,-0.04709 -0.231213,1.06367 0.410634,2.467948 1.130336,3.242239 0.193853,0.208617 1.124408,1.114676 1.422737,0.604037 0.184344,-0.315555 -0.357614,-0.673726 -0.538491,-0.845093 -0.845207,-0.801024 -1.094206,-1.7195 -1.455287,-2.777466 0.99812,0.206606 2.75677,0.705945 3.353873,1.609208 0.585248,0.885366 0.343632,2.036954 1.154162,2.976572 0.696436,0.807288 1.807309,1.020154 2.476115,1.734153 0.324058,0.345981 0.386587,0.967918 0.561088,1.398351 0.309848,0.764445 0.782677,1.47106 1.280339,2.125323 1.149799,1.511553 2.901068,2.503967 3.875696,4.138791 0.81881,1.373295 0.300901,3.814733 1.637394,4.826274 1.25383,0.948901 2.616051,-0.752252 3.217182,-1.694217 1.765922,-2.767396 1.861114,-5.329085 1.46021,-8.501298 1.434594,1.434593 2.779476,2.458217 4.809944,2.705203 1.323406,0.161078 2.616498,1.035367 3.574906,1.91335 0.298552,0.273386 0.540952,1.004161 0.917133,1.121836 1.577998,0.493522 2.422758,-2.31638 2.29938,-3.391347 -0.343635,-2.993462 -2.382712,-5.157155 -4.666096,-6.958869 -0.639833,-0.504822 -1.168928,-1.116579 -1.789745,-1.637618 -0.173831,-0.145864 -0.572494,-0.456723 -0.773395,-0.170697 -0.195753,0.278752 0.163538,0.639833 0.332558,0.825184 0.606948,0.666122 1.29958,1.22385 2.006865,1.776881 2.114027,1.653168 6.33425,6.317697 2.908338,8.737882 -1.232578,-2.374436 -3.825806,-2.324993 -5.928536,-3.171433 -2.056308,-0.827647 -3.853996,-2.803749 -4.586224,-4.882429 1.6535,-0.573615 1.748692,-2.600949 2.013464,-4.02693 1.186042,1.157408 2.490991,1.138055 3.691352,0 0.831227,1.782365 3.281164,2.588199 4.697639,3.835539 0.543298,0.478423 0.966014,1.541419 1.588288,1.853507 1.497793,0.751022 2.421415,-0.77977 2.11425,-2.109553 -0.558068,-2.416491 -2.853415,-3.851535 -4.485106,-5.481099 -0.196537,-0.196311 -1.831248,-2.219509 -2.032481,-1.418485 -0.18535,0.738159 1.446897,1.998475 1.921069,2.433608 1.726993,1.584595 4.331412,3.341904 3.690905,6.032005 l -2.572762,-2.168279 -2.796479,-1.906527 -1.789745,-1.406294 c 0.909415,-2.187292 1.417591,-6.852381 -1.901607,-7.494564 1.535043,-1.685826 2.581376,-2.9033 2.199599,-5.364874 -0.478756,-3.085411 -4.159931,-5.24049 -6.897684,-3.360137 l -1.454167,-2.796479 c 2.255304,1.602605 5.740835,2.598039 8.16527,0.706836 0.654937,-0.510859 1.578555,-1.722183 1.539293,-2.608442 -0.06242,-1.408195 -1.524193,-2.156756 -2.170516,-3.243916 C 58.37931,16.661727 58.413873,15.218898 58.219796,13.744103 58.145301,13.178341 57.891045,12.63794 57.902005,12.066216 57.396289,11.565913 57.14528,10.842243 56.70735,10.276468 55.587305,8.829503 53.639949,7.5585371 51.749752,8.1255062 50.59089,8.4731317 49.37498,10.168837 48.170259,10.02228 47.234667,9.9084636 46.516085,8.6864677 45.597496,8.3424124 44.144669,7.7982501 42.706385,8.3285912 41.234989,8.0157163 39.63406,7.675296 38.329671,6.5519164 36.648764,6.4776636 35.144594,6.4112083 34.046362,7.2088109 32.621834,7.3490594 31.720472,7.4377841 30.79853,6.850546 29.937214,7.1985308 29.008224,7.5738505 28.781261,8.8636418 27.81189,9.0731228 27.144314,9.2173752 26.527187,8.6669172 25.798425,8.8953207 24.691914,9.2420948 23.654532,10.38486 22.44265,10.533844 21.933713,10.596419 21.272804,9.984406 20.764762,9.8468053 19.428415,9.484886 18.070164,10.092662 17.077817,10.981193 c -1.132485,1.014027 -1.991026,2.711244 -2.20801,4.21708 -0.107765,0.747834 0.05105,1.501037 -0.168919,2.237182 -0.361585,1.210094 -1.592356,1.66838 -2.018814,2.695024 -1.258945,3.030711 1.346507,6.191068 4.391336,5.806274 M 56.895274,12.0662 55.776682,11.730622 c 0.319021,-1.714443 -1.470947,-1.649878 -2.460901,-1.006734 -0.26712,-0.7853381 -1.06736,-1.4432069 -1.89993,-0.9751424 -0.291952,0.1641751 -0.998231,0.8577814 -0.596657,1.2266604 0.320814,0.294635 0.760307,-0.665786 1.155841,-0.665809 0.512315,-3.6e-5 0.754715,0.607798 1.228884,0.749869 0.195307,1.225741 0.81881,-0.292153 1.44936,-0.181602 0.41701,0.07312 0.611424,0.590695 0.899683,0.852758 v 0.111858 l -1.566029,1.118593 c -0.193963,-0.652978 -0.691849,-1.321461 -1.454167,-1.297689 -0.991857,0.03094 -1.642317,1.161422 -1.118592,1.968845 -0.257946,0.123792 -1.734266,1.559283 -0.782454,1.559807 0.340834,1.91e-4 0.464999,-0.668861 0.794647,-0.805183 0.691626,-0.286081 1.035591,0.432805 1.553836,0.699543 l -0.559295,1.006734 c -1.033244,-0.52189 -1.853507,-0.340388 -2.349043,0.783014 h -0.111861 v -1.901607 c 0,-0.70053 0.05548,-1.426919 -0.0066,-2.124721 -0.02674,-0.301403 -0.26242,-0.73921 -0.533232,-0.313046 -0.239266,0.376618 -0.131321,1.006138 -0.131321,1.431037 0,1.484337 0.719365,6.074623 -2.013465,4.921802 0.451463,-1.654511 0.335575,-3.320091 0.335575,-5.033664 0,-0.229109 0.124724,-1.775147 -0.418464,-1.462971 -0.432673,0.248663 -0.252689,1.273863 -0.252689,1.686691 0,1.662505 0.679766,5.993972 -2.237184,4.698085 0.539721,-1.598468 0.335578,-3.35779 0.335578,-5.033663 0,-0.193216 0.0519,-1.93862 -0.481219,-1.481965 -0.332558,0.284915 -0.189937,1.095604 -0.189937,1.481965 0,1.261501 0.671266,5.118452 -1.230451,5.225837 -0.455603,0.02573 -0.898676,-0.227633 -1.342309,-0.304035 L 41.570564,18.330314 C 41.99037,16.760032 42.018,15.3691 42.018,13.744087 c 0,-0.372491 0.145977,-1.330375 -0.324278,-1.497492 -0.62988,-0.223888 -0.458736,1.866192 -0.458736,2.168648 0,1.973551 0.01657,4.967665 -2.79648,4.892606 -1.547123,-0.04128 -3.016503,-1.785942 -1.942096,-3.209887 0.83704,-1.109341 3.476805,-0.698348 2.75397,0.989709 -0.154365,0.360407 -0.85505,0.673279 -1.137942,0.264769 -0.121705,-0.175731 0.04385,-1.520691 -0.613214,-0.681333 -0.388037,0.495759 -0.134454,1.226424 0.382111,1.496226 1.920959,1.003155 2.962143,-2.161119 1.335712,-3.176654 -1.463677,-0.913924 -3.516405,0.0923 -3.786434,1.773607 -0.09519,0.592964 0.20336,1.320385 0.323275,1.901603 -0.992304,0.406943 -2.916057,0.930445 -3.731284,-0.155484 -0.344415,-0.458733 0.109732,-1.122953 0.02764,-1.634261 -0.235799,-1.468522 -1.819614,-2.440153 -3.231613,-2.015883 -0.360298,0.108259 -0.69912,0.288262 -0.947111,0.57621 -0.86277,1.001967 -0.488042,2.803458 0.947111,2.980198 0.805051,0.09911 1.599476,-0.585137 1.274858,-1.42643 -0.08065,-0.208954 -0.307947,-0.506386 -0.571599,-0.41097 -0.381328,0.137924 0.07047,0.710528 -0.213651,0.947895 -0.757175,0.632676 -1.312108,-0.604151 -1.077763,-1.209803 0.347435,-0.897724 1.669049,-0.999493 2.373091,-0.486787 1.156735,0.842433 0.830331,2.571216 -0.331214,3.241702 -0.958521,0.553254 -2.093556,0.341058 -3.013598,-0.193854 -1.096667,-0.637486 -0.565448,-3.691387 -0.565448,-4.798757 0,-0.675675 0.171033,-1.540412 -0.671155,-1.677887 v 4.698082 c 0,0.503592 0.268462,1.316809 0.135574,1.773642 -0.263317,0.905386 -1.653055,0.236023 -1.899817,-0.323945 -0.495647,-1.125305 -0.137362,-3.028274 -0.137362,-4.246176 0,-0.390131 0.165887,-1.316223 -0.177186,-1.593823 -0.577417,-0.467148 -0.49397,1.270361 -0.49397,1.481965 0,1.679454 -0.106825,3.300294 0.335578,4.921805 -1.643815,0.693413 -2.013465,-0.685699 -2.013465,-2.013468 0,-2.007648 -0.52255,-4.699995 1.343954,-6.063951 0.600158,-0.4386 1.282387,-0.337132 1.880946,-0.667619 0.4537,-0.250475 0.68771,-0.7567502 1.249466,-0.8259115 0.674847,-0.08308 1.199802,0.4303652 1.901606,0.1781452 0.960199,-0.3450975 1.208303,-1.6130531 2.125773,-1.8560352 0.796548,-0.2109666 1.824088,0.2477791 2.684171,0.1553612 1.607415,-0.1727106 2.75263,-1.0538817 4.474366,-0.6887612 1.341972,0.2845916 2.441661,1.1941755 3.803211,1.4392356 1.231907,0.2217162 2.473877,-0.1997801 3.691354,0.1095342 1.243874,0.3160017 1.911897,1.6699337 3.132057,1.8921967 1.292196,0.235399 2.304634,-1.2619283 3.355774,-1.7489282 2.238638,-1.0371019 4.725715,0.9799072 5.4811,3.0430732 m -35.79493,1.677887 h -0.111859 c -0.625483,-1.179891 -1.827276,-1.144701 -2.572761,-0.111858 -0.797679,-0.518223 -1.246861,-0.665272 -2.125324,-0.22372 0.456083,-1.549909 2.050468,-2.907476 3.691352,-2.907476 0.55943,0 1.40126,0.132163 1.697138,0.69101 0.243887,0.460659 -0.578043,1.899244 -0.578546,2.552044 m -1.90117,-2.605995 c -0.392122,0.133784 -1.427133,1.528064 -0.559296,1.528141 0.508579,4.6e-5 0.451017,-0.96626 1.116858,-0.827028 0.408577,0.08544 0.615159,0.859659 1.006218,0.795094 0.492774,-0.08136 0.216135,-0.773016 0.04065,-1.003802 -0.36437,-0.479192 -1.03151,-0.687867 -1.60443,-0.492405 m 8.201414,0.238136 c -0.27853,0.115688 -0.202689,0.41547 0,0.56292 0.973957,0.708665 1.994896,0.702534 2.801401,1.804939 0.168461,0.230329 0.496765,0.975401 0.898229,0.746412 0.475736,-0.271437 -0.251683,-1.181131 -0.43793,-1.417568 -0.550904,-0.699566 -2.230695,-2.124954 -3.2617,-1.696703 m 11.820828,0.07855 c -0.957181,0.203136 -1.86279,0.949798 -2.411572,1.730103 -0.162084,0.23042 -0.745651,1.159243 -0.05392,1.159243 0.377635,0 0.604151,-0.580382 0.811538,-0.823756 0.643413,-0.75487 1.633031,-0.906237 2.255528,-1.547905 0.419023,-0.431913 -0.294749,-0.58281 -0.601578,-0.517685 m 14.318084,1.730015 v 0.111859 l -0.447436,1.00673 H 52.98021 l -1.230451,-0.783014 c 0.308842,-1.235875 1.02899,-1.357722 1.789745,-0.335575 m 3.803213,-0.111861 0.223717,1.901606 h -0.111859 c -0.419693,-0.692441 -0.997111,-0.965076 -1.789745,-0.783014 -0.137141,-0.467582 -0.747555,-1.988272 0.443073,-1.685571 0.518579,0.131849 0.639053,0.617373 1.234814,0.566979 m -36.242369,1.23045 v 1.566029 h -0.111859 c -0.474608,-1.39515 -2.136309,-1.515265 -2.68462,-0.111858 -1.203393,-0.498624 -1.537057,-0.636849 -2.68462,0.111858 l 0.223718,-1.566029 c 0.758428,0.474374 0.719937,-0.627886 1.451059,-0.498623 0.479496,0.08479 0.813407,1.053267 1.367345,0.780085 0.483287,-0.23835 0.281292,-1.003892 0.984897,-1.035739 0.694791,-0.03143 0.748058,0.81523 1.45408,0.754277 M 55.2174,14.415243 v 0.111858 l -0.335578,0.671156 c -0.690619,-0.245141 -1.077206,-0.371474 -1.789748,-0.111861 v -0.671153 c 0.642183,0.05687 0.586367,-0.551724 1.124185,-0.70335 0.480099,-0.135338 0.726079,0.427135 1.001141,0.70335 m 2.460901,1.118589 c 0.0528,1.225754 0.515335,2.507323 1.288393,3.465958 0.608177,0.754265 1.434817,1.216021 1.619944,2.238861 -2.256981,0.853934 -3.977937,1.449807 -6.264114,0.125728 -0.856169,-0.495868 -1.533142,-1.162888 -2.013575,-2.026774 -0.09497,-0.170697 -0.329091,-0.646993 -0.60046,-0.456833 -0.275399,0.193067 0.02272,0.700572 0.130315,0.903709 0.40303,0.760645 1.007294,1.355735 1.700706,1.853731 2.07275,1.488623 4.306018,1.547908 6.599692,0.60717 -0.359628,1.057183 -1.537616,1.597015 -2.572762,1.780352 -2.233268,0.395647 -4.607701,-0.452916 -6.14185,-2.11604 -0.442179,-0.479429 -0.788271,-1.045993 -0.962325,-1.677777 -0.07606,-0.276292 -0.09229,-0.849903 -0.417793,-0.968028 -0.566231,-0.205596 -0.336921,0.867243 -0.267902,1.07989 0.37305,1.150695 1.190067,1.843327 1.861337,2.796479 -0.633124,-0.432897 -1.180451,-0.947895 -1.901607,-1.24421 -0.21947,-0.09016 -0.729098,-0.290946 -0.856169,0.04609 -0.169244,0.448442 1.036933,0.750351 1.303606,0.914895 1.193984,0.736928 1.902163,2.215818 2.265707,3.527144 0.735808,2.654755 -0.0019,6.045204 -1.775652,8.16404 -0.904046,1.079776 -2.272307,1.994112 -3.398393,2.839878 -0.980001,0.736145 -2.001721,1.595895 -3.132057,2.0836 0.199331,-4.350647 5.258164,-4.116081 7.062228,-7.382812 0.83212,-1.506632 1.28929,-4.286445 -0.909975,-4.853459 -1.050357,-0.270923 -2.12801,0.296762 -3.130377,0.109958 -0.865343,-0.161301 -1.102596,-1.452827 -2.127003,-1.373072 -0.487929,0.03792 -0.981565,0.371038 -1.45417,0.507952 -1.344099,0.389161 -2.680928,0.767131 -4.026931,1.134366 0.23636,-1.870061 -0.309178,-4.363738 -2.684621,-4.444837 -0.743415,-0.02541 -1.461437,0.721939 -2.125323,0.639164 -0.550458,-0.06846 -1.038723,-0.791181 -1.566025,-1.017694 -1.615808,-0.693976 -3.147607,0.426183 -3.915072,1.803168 L 28.3712,24.146989 c 1.093087,-1.571732 1.440075,-2.348483 0.335577,-4.02693 l 1.566028,-0.22931 1.23045,-0.686145 2.460904,0.685695 2.34904,-0.6197 2.013465,0.737602 c -1.404392,2.778693 2.252844,5.208944 4.809944,4.621907 1.460321,-0.335128 2.526227,-1.704397 1.866594,-3.16774 -0.358731,-0.795764 -1.001811,-1.245214 -1.531016,-1.901603 l 2.125323,0.09687 1.230451,-0.222936 1.45417,0.287368 1.566029,-0.944315 0.111858,-1.566028 c 0.778427,0.165437 0.698002,-0.598447 1.347122,-0.727982 0.627753,-0.125246 1.524752,1.417034 1.449357,-0.05503 l 1.117362,-0.796742 1.090963,0.646647 1.152261,-1.392803 1.561219,0.648022 m -36.689806,0.447439 h 0.111859 v 1.454167 h -0.111859 c -0.522427,-0.734915 -1.392982,-1.233046 -2.22545,-0.59811 -0.214892,0.163874 -0.819558,0.918812 -0.321763,1.118705 0.472158,0.189601 0.744334,-1.03179 1.528824,-0.611983 0.4768,0.255152 0.519519,0.740171 1.130248,0.650686 0.09019,0.601691 0.559195,1.100693 0.616691,1.677887 0.147094,1.476876 -1.59566,3.573117 -2.630156,4.422353 -1.673022,1.373628 -4.704148,1.909323 -5.4811,-0.731002 2.186433,0.519139 5.051997,-2.916613 5.257381,-4.921802 -0.785139,0.124052 -1.00388,0.957962 -1.39108,1.566029 -0.653504,1.026307 -1.560424,2.236401 -2.747709,2.669741 -1.279825,0.467013 -1.920297,-1.343652 -1.3392,-2.276667 0.778842,-1.250474 1.977379,-1.754289 2.122214,-3.413273 l 1.343608,-1.048936 1.20809,0.802063 0.244782,-0.647999 c 0.552047,-0.01039 0.697531,-0.586568 1.232095,-0.639053 0.629912,-0.06183 0.945433,1.01613 1.452525,0.527194 m -2.68462,-0.111861 -0.11186,0.111861 0.11186,-0.111861 m 23.154847,3.512154 c 2.309333,-0.499339 3.496381,3.006886 1.118592,3.599963 -2.398823,0.598337 -3.515735,-3.081494 -1.118592,-3.599963 m -16.778875,0.402917 c -0.89946,0.753038 -1.927814,1.129779 -2.337308,2.349043 -0.66507,1.980355 1.584831,3.402756 3.344041,3.020199 -0.126625,0.463989 -1.091298,2.648041 -0.220922,2.839431 0.387927,0.08524 0.385019,-0.60292 0.415557,-0.827647 0.122038,-0.899459 0.3971,-2.034941 1.37184,-2.363582 0.964003,-0.325062 1.394437,0.905499 2.110335,0.738605 0.39408,-0.09183 0.511308,-0.761088 0.700575,-1.05785 0.398667,-0.624733 1.036263,-1.078213 1.774868,-1.193761 0.666569,-0.104142 1.372848,0.155594 1.86805,0.59867 0.273943,0.245083 0.524952,0.740059 0.932792,0.761648 0.591624,0.03133 1.165795,-0.62809 1.785385,-0.705272 2.463472,-0.306828 2.496581,2.055748 2.460898,3.782517 -0.588267,-0.109175 -1.222397,-0.04508 -1.789745,-0.235463 -2.088074,-0.700462 -3.479938,-1.754062 -5.816674,-1.408978 -2.015591,0.297769 -3.434189,2.037738 -5.369241,2.365149 -1.266917,0.214324 -3.024806,-2.387968 -4.026236,-0.932458 -0.157118,0.228416 -0.234468,0.515672 -0.336271,0.771048 -0.3787,-0.301462 -0.716783,-0.772165 -1.230451,-0.839057 -2.06114,-0.268126 -1.976082,3.476248 -1.594083,4.642266 0.854335,2.607772 3.11341,2.983396 4.94818,4.526381 1.409425,1.185148 2.231366,3.101741 2.574438,4.869789 -2.133825,0.424617 -1.875542,3.903212 0.223719,4.178834 1.556855,0.204477 1.186378,-1.772185 0.223718,-2.277231 -0.04284,0.480549 0.516342,0.777871 0.373386,1.225641 -0.180541,0.565561 -0.88682,0.478199 -1.256514,0.179984 -0.768585,-0.619924 -0.792298,-2.071297 0.119577,-2.584956 2.320631,-1.307186 3.797955,2.923104 2.19423,4.346738 -0.968812,0.859859 -2.429805,0.460636 -3.32781,-0.301125 -1.158973,-0.983132 -1.635605,-2.871315 -1.243091,-4.320449 0.161189,-0.594757 0.506834,-1.076756 0.946328,-1.499473 0.139265,-0.133894 0.531108,-0.392403 0.438488,-0.634576 -0.124835,-0.326405 -0.66903,0.08926 -0.798227,0.197207 -0.615561,0.514442 -0.896551,1.196781 -1.13772,1.936842 h -0.111858 c -0.11837,-0.347657 -0.248294,-0.687712 -0.43397,-1.006287 -0.605773,-1.039394 -1.675538,-1.284143 -2.303303,-0.112195 -0.499887,0.933132 -0.499283,1.887177 -0.37579,2.908227 0.09761,0.807064 1.033064,2.288974 1.719655,1.001811 0.348363,-0.653033 0.114421,-1.458307 -0.06076,-2.120403 h -0.223718 c -0.05752,0.329651 0.33004,2.28629 -0.633179,1.780129 -0.95455,-0.501689 -0.615494,-3.443139 0.531767,-3.552761 0.830991,-0.07953 1.248047,0.761428 1.426283,1.437057 0.346573,1.313673 0.268216,3.601303 -0.889168,4.530409 -1.093413,0.877646 -2.123333,-0.297099 -2.494918,-1.286493 -0.688617,-1.833485 -0.695328,-4.239016 0.13517,-6.040398 0.446687,-0.968921 1.76525,-1.359758 2.035904,-2.237181 0.917156,0.522605 1.467302,1.255283 2.17443,2.006418 0.122486,0.130091 0.551578,0.539608 0.683907,0.188594 0.268798,-0.712542 -1.502033,-2.054518 -1.963463,-2.404079 -2.316347,-1.754508 -4.791935,-2.715156 -5.359833,-5.943184 -0.313743,-1.783372 0.03601,-3.955231 1.257811,-5.364769 0.696603,-0.803594 1.676311,-1.300586 2.375028,-2.129796 0.921675,-1.093872 1.511452,-2.341436 1.950712,-3.691355 l 2.237183,-0.111858 m 1.34231,0.0424 c 2.257318,-0.08043 2.087628,3.547391 -0.111859,3.643699 -1.608758,0.07047 -2.692238,-1.851044 -1.527661,-3.105657 0.42294,-0.45549 1.048233,-0.517012 1.63952,-0.538042 m 33.222173,8.347041 c -0.03412,2.102953 0.701578,4.112278 -1.313453,5.687589 -0.41936,0.327748 -1.019147,0.423164 -1.483026,0.688383 -0.881453,-0.592518 -1.851718,-0.325622 -2.657775,-1.346782 -1.016017,-1.287163 -0.609074,-3.624349 0.868026,-4.39819 0.474506,-0.248553 1.047674,-0.153247 1.566029,-0.183564 0.309738,0.340612 0.702365,0.592298 0.925745,1.008411 0.419473,0.781451 -0.02437,2.786859 -1.26479,2.245351 -0.60404,-0.263766 -0.114321,-0.831787 -0.466116,-1.124295 -0.153697,-0.127858 -0.302805,0.115548 -0.341844,0.233896 -0.22394,0.679769 0.465672,1.65339 1.194434,1.551932 0.703592,-0.09799 1.172841,-0.725519 1.416808,-1.342532 0.995547,-2.518733 -2.37298,-4.098295 -4.036996,-2.237185 H 53.53951 l -0.223716,-2.684617 c 0.832343,-0.0042 1.602157,-0.468356 2.491327,-0.418803 1.622517,0.09061 2.347363,1.398127 3.437209,2.320406 M 45.148396,26.677019 c 0.836594,0.01631 0.857177,1.242643 1.680014,1.368374 1.110089,0.169691 2.224318,-0.474059 3.355213,-0.117118 1.290186,0.407171 1.101703,2.149823 0.764335,3.153984 -1.014564,3.019858 -4.198187,2.920303 -6.035808,5.035336 -1.800935,2.072863 -1.020827,6.196214 -4.68388,6.066683 -1.284143,-0.04542 -2.308663,-1.110426 -3.467635,-1.546452 -1.735606,-0.652923 -3.662042,-0.687039 -5.481096,-0.462986 -1.071947,0.132105 -3.252418,1.448127 -4.21519,0.82731 -0.453365,-0.292399 -0.664555,-1.587058 -0.906171,-2.089753 -0.59263,-1.232801 -1.413676,-2.269957 -2.485511,-3.118634 -0.65583,-0.519361 -1.43645,-0.699455 -2.124876,-1.143648 -1.501296,-0.968811 -2.348361,-2.467947 -2.349043,-4.239012 -2.69e-4,-0.682566 -0.09665,-1.473967 0.471341,-1.977896 0.953879,-0.846213 1.203202,0.788161 1.984639,0.788161 0.768875,0 0.248417,-1.44052 1.125672,-1.46334 1.168,-0.03043 1.744075,1.526093 3.129898,1.369155 1.836951,-0.20817 3.027804,-1.919503 4.809943,-2.260784 1.285486,-0.246203 2.673884,-0.246763 3.915071,0.198997 1.24846,0.448443 2.184052,1.296446 3.579494,1.330565 1.731689,0.04251 3.39884,-0.59319 5.033661,-1.085596 0.568134,-0.171144 1.311549,-0.644866 1.899929,-0.633346 m -13.421421,1.879906 c -1.284143,0.169131 -2.494348,0.366898 -3.691353,0.896553 -0.778316,0.344411 -1.745674,1.03805 -2.572761,1.156958 -1.157519,0.166558 -1.725651,-1.216467 -2.678065,-1.144992 -0.654354,0.04922 -0.234736,1.138616 -0.806135,1.130672 -0.478534,-0.0066 -0.977302,-1.00248 -1.466004,-0.467122 -0.403801,0.442289 -1.12e-4,1.491866 0.191011,1.959995 1.022426,2.50408 3.32762,2.079127 5.094659,3.519984 0.722834,0.589274 1.24667,1.371618 1.419381,2.296693 0.124835,0.668693 -0.167789,1.589068 0.494529,2.029234 0.98067,0.651803 2.705202,-0.688155 3.67916,-0.950914 1.994002,-0.537819 4.00344,-0.257833 5.928533,0.41444 1.036937,0.362087 2.448821,1.259423 3.579494,1.041073 1.48415,-0.286695 1.549585,-2.981829 2.244567,-4.099861 1.420275,-2.284947 3.580614,-2.930486 5.585465,-4.463069 0.545758,-0.417123 1.742766,-1.581351 1.06859,-2.326446 -1.000134,-1.105056 -2.74536,0.484686 -3.864959,0.176177 -0.791404,-0.218123 -1.22497,-0.905275 -2.125323,-0.876193 -1.64131,0.0528 -3.020758,1.262107 -4.809944,1.094543 -2.504414,-0.234456 -4.652,-1.732586 -7.270845,-1.387725 m 12.640084,0.959305 c -0.333115,1.237834 0.399113,3.092121 -0.671153,4.026929 l -0.150341,-2.012571 -0.565224,-0.441619 0.04441,2.118613 h -0.111858 c -0.315222,-0.482449 -0.66355,-2.371416 -1.137499,-2.534057 -0.64375,-0.221033 -0.09855,1.305619 -0.3858,1.522066 -0.381441,0.287366 -0.867694,-0.312422 -1.273184,-0.278752 -0.319245,0.02641 -0.565224,0.336138 -0.894873,0.293405 -0.343184,-0.04441 -0.544194,-0.419023 -0.890509,-0.452916 -0.365221,-0.03568 -0.566344,0.381327 -0.903599,0.447213 -0.503366,0.09833 -0.678089,-0.523725 -1.124296,-0.542068 -0.314548,-0.01298 -0.544864,0.309065 -0.874403,0.230653 -0.37674,-0.0896 -0.506385,-0.64196 -0.911315,-0.64487 -0.391507,-0.0029 -0.580998,0.495089 -1.000694,0.45303 -0.419024,-0.04195 -0.597774,-0.558962 -1.011094,-0.582561 -0.278416,-0.01589 -0.505269,0.220586 -0.778651,0.248549 -1.388732,0.141951 -2.679363,0.291395 -4.02693,0.687263 -0.334459,0.09821 -0.550683,0.432449 -0.894874,0.501352 -0.473164,0.09463 -0.828652,-0.191501 -1.34231,-0.01945 0.248887,-1.44645 1.569273,-1.8676 2.796479,-2.411795 1.991652,-0.883126 4.361054,-1.103826 6.48783,-0.62093 1.651267,0.374954 2.954537,1.133919 4.698086,1.131122 1.775876,-0.0029 3.251859,-1.104609 4.921803,-1.118592 m 4.921805,0.447436 c -0.523055,1.637954 -3.13754,2.746927 -4.586227,3.467635 0.41757,-1.137162 0.316785,-2.176779 0.22372,-3.355777 1.460656,0.746325 2.809678,-0.110851 4.362507,-0.111858 m -26.175045,0.559295 0.894873,0.559297 -0.783014,1.901607 H 23.11382 v -2.460904 m -1.901606,0.559297 c 1.017795,0.579765 1.08434,0.970265 1.230451,2.125323 -0.624778,-0.449673 -1.304927,-1.307186 -1.230451,-2.125323 m 3.691352,0.223717 c 0.148885,0.770488 -0.467347,1.523299 -0.894873,2.125326 h -0.111859 l 0.783014,-2.125326 h 0.223718 m 15.212844,1.342312 c -0.259063,2.005854 -1.212551,4.418882 -3.132054,5.369347 -0.862323,0.426966 -1.780575,0.01107 -2.684621,3.24e-4 -0.85986,-0.01029 -2.235615,0.36231 -3.020195,0.118908 -1.866148,-0.578989 -2.872434,-3.522561 -2.90834,-5.26488 1.322734,-0.42249 2.59502,-0.970824 4.026931,-0.870152 0.416227,0.02929 0.694532,0.439273 1.118589,0.465335 0.358957,0.02204 0.647219,-0.291618 1.006734,-0.221369 0.873059,0.170584 1.900263,0.688829 2.796476,0.690282 0.361531,6.47e-4 0.64979,-0.294635 1.006734,-0.281325 0.785587,0.02929 0.978098,0.401463 1.789745,-0.0065 m 12.751948,-0.335578 c 0.794311,3.581172 4.851667,1.677666 6.419595,4.250762 0.832904,1.366694 0.974741,3.397272 0.186917,4.80983 -0.554484,0.994204 -1.675313,1.775205 -2.803189,1.181011 -1.603614,-0.844873 -2.043891,-5.153578 0.447323,-4.970015 1.193205,0.08803 1.841874,2.399489 0.66478,2.929814 -1.027761,0.462986 -0.688379,-0.936709 -0.552918,-1.377992 -1.04029,0.114765 -0.804827,1.872857 0.113535,2.071854 0.754044,0.163428 1.25025,-0.676746 1.396004,-1.288839 0.42898,-1.800485 -1.342088,-4.146844 -3.023219,-2.32835 -0.288148,0.311752 -0.492628,0.695539 -0.62272,1.097899 -0.183897,0.568801 -0.172824,1.095213 -0.100785,1.677887 -0.721045,-0.334125 -1.346562,-1.134252 -2.237184,-0.862323 -1.800595,0.549788 -2.308214,3.656565 -0.670596,4.677392 1.326539,0.826974 2.450388,-1.790978 0.894316,-2.249041 0.06354,0.488936 0.546431,2.131253 -0.666233,1.630571 -1.584038,-0.653929 -0.481106,-3.79706 1.337389,-3.250965 3.10118,0.931229 0.879322,7.554187 -2.338977,5.288256 -0.374504,-0.263652 -0.660639,-0.586927 -0.884582,-0.984921 -0.987491,-1.755182 -0.847557,-4.318321 0.400343,-5.922496 0.568691,-0.730998 1.294436,-0.82854 2.028678,-1.268593 0.172264,-0.103135 0.393521,-0.342625 0.170137,-0.521265 -0.426743,-0.341394 -1.387388,0.269245 -1.724196,0.522381 -1.305285,0.981342 -1.945902,2.700058 -2.013911,4.283313 -0.608964,-0.278976 -1.06613,-0.794088 -1.67789,-1.082013 -1.179441,-0.554935 -2.236175,-0.41936 -3.467632,-0.260296 v -0.111862 c 2.456875,-1.509089 5.06778,-3.246712 7.037059,-5.369237 0.708628,-0.763775 0.979888,-1.866147 1.687956,-2.572762 m -10.962199,0.559298 c 0.466899,0.683681 0.935588,1.299465 1.789748,1.454169 -0.475516,0.451016 -0.997674,-0.02975 -1.576098,0.179307 -0.940735,0.339832 -2.732608,2.504417 -2.674552,3.512044 l -0.894872,1.006731 -1.118593,-0.335575 c 0.705159,-0.871719 1.592538,-1.464573 2.186509,-2.460904 0.812994,-1.363675 0.625517,-2.915719 2.287858,-3.355772 m -14.206113,0.111858 0.111859,1.342311 -2.013465,0.234903 -1.454169,-0.458623 0.671155,-1.006733 c 0.966239,0.210183 1.771513,0.215107 2.68462,-0.111858 m 0.111859,2.4609 c -0.635248,0.165778 -1.026084,0.208284 -1.34231,-0.447436 0.610415,-0.194074 0.956396,-0.06331 1.34231,0.447436 m 15.100988,-0.223716 -0.559298,1.00673 -0.783014,-0.223716 c 0.186357,-0.657733 0.680329,-0.962661 1.342312,-0.783014 m -22.036256,1.677886 v 0.111858 c -0.813004,0.481779 -1.404381,1.019934 -1.789747,1.901607 H 18.97503 c -0.05215,-1.138502 -0.972538,-1.638401 -1.006733,-0.223717 l 0.447437,-0.447439 c 0.288787,0.59677 0.350645,1.276313 0.08018,1.899483 -0.164456,0.378864 -0.528502,0.690059 -0.879504,0.301572 -0.830029,-0.918366 -0.652352,-4.274029 0.687464,-4.700659 0.735272,-0.234232 1.921427,0.848564 2.572761,1.157295 m 7.382704,-0.111858 -0.559295,0.335578 -0.223719,-0.894876 c 0.442515,0.03412 0.628201,0.137812 0.783014,0.559298 m 13.758676,0.111858 -0.559294,1.342309 -1.342313,-0.447437 c 0.348108,-0.898005 1.003601,-1.274746 1.901607,-0.894872 m -12.080789,1.23045 h 0.111861 l 0.335578,0.22372 v 0.223717 l -2.349044,0.783014 c 0,-0.465223 -0.151681,-2.188972 0.778652,-1.87297 0.513657,0.1745 0.510749,0.767467 1.122953,0.642519 m 9.284309,1.118593 c 1.124299,-2.066598 2.970981,1.138502 0.671716,0.339491 -0.239156,-0.083 -0.454259,-0.213203 -0.671716,-0.339491 m 0.559298,3.691351 2.125324,-0.223716 c 0.111075,0.965568 0.386027,1.687953 1.249467,2.242327 1.104496,0.709076 3.363493,0.64498 3.924914,-0.789837 0.608627,-1.555515 -2.125323,-2.556543 -2.377902,-1.005054 0.373497,-0.03714 0.85125,-0.272713 1.215574,-0.135911 0.725855,0.272715 0.367121,1.192307 -0.101905,1.507526 -1.231457,0.827537 -3.313154,-0.288036 -2.995699,-1.819051 0.698559,-3.368527 6.514453,-1.993779 6.160532,1.342308 -0.19307,1.820171 -2.431035,2.866392 -4.054782,2.906661 -2.648602,0.06577 -4.66397,-1.440747 -5.145523,-4.025253 m -7.428342,-1.891977 c -0.310186,0.217903 -0.07081,0.83324 0.01722,1.108973 0.280766,0.879549 0.727642,1.768605 1.49265,2.323876 0.237923,0.172821 0.745092,0.487369 1.03447,0.244523 0.305152,-0.256156 -0.207273,-0.596767 -0.37551,-0.733239 -0.923842,-0.749341 -1.143535,-1.576428 -1.591755,-2.611575 -0.09061,-0.209177 -0.313875,-0.517348 -0.577081,-0.332558 m 28.493549,0.228866 c -0.650686,0.139935 0.245866,0.839837 0.412314,0.955165 1.166915,0.808854 2.448818,1.643434 3.382283,2.725784 0.220923,0.256269 0.761651,1.448463 1.172621,1.299246 0.699456,-0.253923 -0.297435,-1.491757 -0.507058,-1.750599 -0.846437,-1.045547 -2.066151,-1.814915 -3.153534,-2.588866 -0.318575,-0.226739 -0.876192,-0.733351 -1.306626,-0.64073 m -2.899614,2.801399 c -0.565337,0.305376 0.656277,1.71939 0.865007,1.993779 1.167474,1.534709 3.049841,2.665604 3.972903,4.362507 0.190944,0.350901 0.100002,2.10329 0.668693,1.780129 0.681109,-0.387147 0.306158,-1.595785 0.04251,-2.115707 -0.874179,-1.723749 -2.771423,-2.871984 -3.97592,-4.362507 -0.252243,-0.312085 -1.069377,-1.930353 -1.573189,-1.658201 m -8.210126,0.42775 c 0.493745,0.834134 1.014897,1.565692 1.901606,2.022862 0.382111,0.196983 0.954605,0.108838 1.269714,0.393633 0.363764,0.328865 0.493072,1.043087 0.614553,1.498577 0.790171,2.963486 0.88089,6.002138 -0.63838,8.725015 -0.40672,0.728875 -1.295889,2.429691 -2.353966,2.183715 -1.149245,-0.267093 -0.85964,-2.884598 -1.197901,-3.749718 -1.234814,-3.15868 -5.328859,-4.459043 -5.859744,-8.053859 l 1.342309,0.111858 c -0.07092,1.296336 1.504396,2.731044 2.349156,3.579494 0.171704,0.172487 1.050133,1.24365 1.335485,0.820823 0.233116,-0.345534 -0.579764,-0.957738 -0.775854,-1.156401 -0.957068,-0.969372 -1.819948,-2.039081 -2.461351,-3.243916 2.140986,-0.726188 3.120647,-1.273293 4.474369,-3.132057 m 6.411655,1.25014 c -0.695316,0.101566 0.379874,1.177875 0.523725,1.312553 1.167698,1.093426 2.518843,2.023311 3.555443,3.253985 0.228977,0.271706 0.555715,1.623634 0.988275,1.48191 0.653259,-0.213873 -0.03848,-1.516809 -0.25269,-1.817488 -0.921495,-1.293203 -2.342779,-2.214698 -3.508127,-3.263045 -0.304815,-0.274166 -0.834134,-1.036933 -1.306626,-0.967915 m -7.494565,0.690169 c -0.561644,0.201907 0.671266,2.165036 0.827424,2.534057 0.988274,2.33551 1.597795,4.954578 1.597795,7.494565 0,0.355714 -0.218797,2.237967 0.422826,2.118613 0.606054,-0.112755 0.362201,-1.90485 0.360078,-2.34233 -0.01207,-2.500387 -0.66601,-5.203354 -1.646457,-7.494564 -0.185238,-0.433007 -0.901919,-2.547593 -1.561666,-2.310341 M 23.44939,57.928478 c -0.02282,-1.07329 -0.54849,-2.060671 -0.652161,-3.132057 -0.178863,-1.848248 0.389448,-3.877932 1.023533,-5.592958 0.0858,-0.232107 1.08962,-2.272194 0.33692,-2.041208 -0.561868,0.172377 -0.926418,1.656077 -1.106958,2.153066 -0.729982,2.009328 -1.07641,4.356244 -0.799413,6.487834 0.101814,0.783571 0.24854,2.049817 1.198079,2.125323 M 51.276593,47.307113 c -0.369248,0.317681 0.345198,1.516029 0.457056,1.89635 0.477752,1.624531 0.726525,3.33866 0.685586,5.033663 -0.0058,0.24139 -0.208394,1.525423 0.418466,1.210764 0.379874,-0.19061 0.302802,-1.181011 0.329872,-1.546342 0.123044,-1.658647 -0.263539,-3.577256 -0.786371,-5.145521 -0.09821,-0.294416 -0.558401,-1.91872 -1.104609,-1.448914 m -29.281372,0.106605 -1.006733,5.704816 h -0.111859 c -1.007281,-1.726099 -1.025558,-3.33989 -0.783014,-5.25738 h 0.559296 c -0.11007,0.852366 -0.793686,3.153197 0.447436,3.355774 0,-1.275417 -0.257913,-2.967063 0.894874,-3.80321 m 25.125244,0.131544 c -0.405937,0.2377 0.22439,1.081457 0.361865,1.322623 0.641736,1.125862 1.126198,2.339646 1.502269,3.579493 0.08143,0.268352 0.251573,1.114452 0.713772,0.875186 0.389944,-0.201793 0.05448,-0.922615 -0.03579,-1.210764 -0.385354,-1.230337 -0.835476,-2.456538 -1.478106,-3.579493 -0.150005,-0.262196 -0.639053,-1.235931 -1.064007,-0.987045 m -2.082257,-0.01968 -0.111858,0.111859 z"
       id="path836" />
  </g>
</svg>
