<?xml version="1.0" encoding="UTF-8" standalone="no"?>
<!-- Created with Inkscape (http://www.inkscape.org/) -->

<svg
   width="16mm"
   height="16mm"
   viewBox="0 0 16 16"
   version="1.1"
   id="svg5"
   inkscape:version="1.1 (c68e22c387, 2021-05-23)"
   sodipodi:docname="描画.svg"
   xmlns:inkscape="http://www.inkscape.org/namespaces/inkscape"
   xmlns:sodipodi="http://sodipodi.sourceforge.net/DTD/sodipodi-0.dtd"
   xmlns="http://www.w3.org/2000/svg"
   xmlns:svg="http://www.w3.org/2000/svg">
  <sodipodi:namedview
     id="namedview7"
     pagecolor="#ffffff"
     bordercolor="#666666"
     borderopacity="1.0"
     inkscape:pageshadow="2"
     inkscape:pageopacity="0.0"
     inkscape:pagecheckerboard="0"
     inkscape:document-units="mm"
     showgrid="false"
     inkscape:zoom="12.443434"
     inkscape:cx="44.521471"
     inkscape:cy="32.507103"
     inkscape:window-width="2542"
     inkscape:window-height="1343"
     inkscape:window-x="384"
     inkscape:window-y="334"
     inkscape:window-maximized="0"
     inkscape:current-layer="layer1" />
  <defs
     id="defs2" />
  <g
     inkscape:label="レイヤー 1"
     inkscape:groupmode="layer"
     id="layer1">
    <g
       inkscape:label="レイヤー 1"
       id="layer1-7"
       transform="matrix(0.5032596,0,0,0.5032596,-9.0692896,-9.0711013)">
      <circle
         style="fill:#324090;fill-opacity:1;stroke:#324090;stroke-width:0.499999;stroke-opacity:1;paint-order:fill markers stroke"
         id="path1252"
         cx="33.072918"
         cy="33.072918"
         r="14.552083" />
      <text
         xml:space="preserve"
         style="font-style:normal;font-weight:normal;font-size:9.3573px;line-height:1.25;font-family:sans-serif;fill:#ffffff;fill-opacity:1;stroke:none;stroke-width:0.233934"
         x="38.604248"
         y="39.580143"
         id="text2774"
         transform="matrix(1.0580497,0,-0.32032169,0.94513521,0,0)"><tspan
           sodipodi:role="line"
           id="tspan2772"
           style="font-style:normal;font-variant:normal;font-weight:bold;font-stretch:normal;font-size:19.9624px;font-family:'Frank Ruhl Hofshi';-inkscape-font-specification:'Frank Ruhl Hofshi, Bold';font-variant-ligatures:normal;font-variant-caps:normal;font-variant-numeric:normal;font-variant-east-asian:normal;fill:#ffffff;fill-opacity:1;stroke-width:0.233934"
           x="38.604248"
           y="39.580143">J</tspan></text>
      <path
         style="font-variation-settings:normal;opacity:1;vector-effect:none;fill:#20285a;fill-opacity:1;stroke:none;stroke-width:1.65333;stroke-linecap:butt;stroke-linejoin:miter;stroke-miterlimit:4;stroke-dasharray:none;stroke-dashoffset:0;stroke-opacity:1;-inkscape-stroke:none;stop-color:#000000;stop-opacity:1"
         d="M 107.56632,178.76135 C 67.068359,165.82273 55.233522,113.81498 86.089702,84.383171 121.9474,50.180723 181.37321,75.247641 181.28517,124.5384 c -0.0276,15.46471 -4.94317,28.1201 -15.16818,39.05146 -14.56494,15.57111 -38.16187,21.68548 -58.55067,15.17149 z m 9.11596,-23.86924 c 9.5352,-3.98406 12.29595,-8.62581 21.38412,-35.95388 6.77005,-20.357515 6.95665,-20.743538 10.3391,-21.388721 1.3558,-0.25861 2.70591,-1.193474 3.00025,-2.077474 0.40329,-1.211236 -2.50113,-1.607273 -11.78727,-1.607273 -8.06099,0 -12.32243,0.486303 -12.32243,1.406197 0,0.773407 1.09714,1.693105 2.4381,2.043774 2.25694,0.590203 1.82999,2.456519 -5.74613,25.117647 -8.52481,25.49879 -10.87192,30.58004 -14.12541,30.58004 -1.56595,0 -1.66793,-0.51645 -0.52404,-2.65383 1.65435,-3.09117 -0.28096,-6.3469 -3.77278,-6.3469 -6.308278,0 -10.506197,8.60793 -5.59339,11.46937 3.33317,1.9414 11.32834,1.6596 16.70988,-0.58895 z"
         id="path18897"
         transform="scale(0.26458333)" />
    </g>
  </g>
</svg>
